<svg version="1.1" xmlns="http://www.w3.org/2000/svg" viewBox="-2890.6029024746663 -1684.480029296875 5419.882957711483 2918.4"><desc>Created with Snap</desc><defs></defs><g><rect x="-2890.6029024746663" y="-1684.480029296875" width="5419.882957711483" height="2918.4" fill="#37515f" style=""></rect><g transform="matrix(3.4169,0,0,3.4169,-2628.0729,-1421.1433)"><path d="M176.9,14.7c1.7,1.1,3.3,2,3.6,2c1.1,0,28.8,17.7,38.1,24.4c21.2,15.2,30.5,23.1,46.8,39.5c27.2,27.4,39.6,49.5,44,78.8  c1.2,7.6,1.1,9.8-0.2,9.8c-0.8,0-1.4-1.7-2.1-5.8c-2.4-15-6.2-28-11.1-37.9c-13.8-27.4-44.8-58.7-85.7-86.6  c-8.4-5.8-28.3-18.2-29.1-18.2c-0.2,0-1.5-0.7-2.9-1.7c-1.3-1-2.5-1.5-2.6-1.3c-0.2,0.2-0.4,5.8-0.5,12.5  c-0.2,11.9-2.1,33.8-3.8,42.9c-2.8,14.5-7.7,38.6-10.1,48.8c-16,68.6-19.3,91.2-18.3,122.6c0.8,27.1,6.3,48.1,19.6,74.7  c11,21.8,22.6,37.2,43.3,56.8c7,6.6,15.9,14.4,19.8,17.5c13.3,10.5,33.3,23.3,50.8,32.7c5.9,3.2,6.5,3.8,5.4,4.9  c-0.9,0.9-4.9-1-16.9-8c-27.7-16.1-43.5-28.1-64.9-49c-19.8-19.4-29.5-32.3-40.4-54.3c-14.6-29.3-19.5-50-19.4-82.1  c0.1-32.4,2.5-48.2,16.6-109.5c8.3-36.6,12.6-59.3,14.1-75c0.2-3.3,0.6-6.2,0.9-6.5c0.2-0.3,0.3-7.8,0.3-16.7  c0.1-8.9,0.2-16.4,0.5-16.7C173.2,12.5,173.5,12.6,176.9,14.7z M486.5,141.4c18.2,1.5,33.7,4.1,64.7,11.1  c39.6,8.9,45.2,10.2,55.2,12.1c22,4.4,29.2,5.6,40.5,6.6c3.3,0.2,6.2,0.6,6.5,0.9c0.3,0.2,7.9,0.3,16.9,0.3c9,0.1,16.4,0.3,16.7,0.7  c0.8,1.3-16.5,29.7-27.9,45.6c-15.1,21-22.9,30.2-39.5,46.8c-27.2,27.1-49.5,39.6-78.7,44c-7.6,1.2-9.8,1.1-9.8-0.2  c0-0.8,1.7-1.4,5.8-2.1c21.4-3.3,34.5-8.2,50.6-18.6c24.5-16,53.8-47.5,77.2-83c7.5-11.4,18.3-29.5,17.9-29.8  c-0.2-0.2-5.8-0.4-12.5-0.5c-11.9-0.2-33.8-2.1-42.9-3.8c-14.5-2.8-38.6-7.7-48.8-10.1c-68.6-16-91.2-19.3-122.6-18.3  c-27.1,0.8-48.1,6.3-74.7,19.6c-21.8,10.9-36.9,22.5-56.7,43.2c-12.9,13.6-20.8,23.3-30.4,37.6c-6.1,9-14.7,23.2-20,33.1  c-3.2,5.9-3.8,6.5-4.9,5.4c-0.9-0.9,1-4.9,8-16.9c16.1-27.7,28.1-43.5,49-64.9c19.4-19.8,32.3-29.5,54.3-40.4  c23-11.5,40.6-16.7,65-19.2C452,140,474.1,140.3,486.5,141.4z M424.1,271c12.2,6.5,28.1,16.3,39.5,24.3c25.1,17.7,51,43.5,65.8,65.4  c5.8,8.6,17.1,31.5,20.7,42.2c7.6,22.2,9.7,34.7,9.5,59.6c-0.1,32.9-2.4,47.9-17.9,115.1c-4.8,21-10,47.2-11.4,57.9  c-0.5,3-1,8.3-1.3,11.5c-0.2,3.3-0.6,6.2-0.9,6.5c-0.2,0.3-0.3,7.9-0.3,16.9c-0.1,9-0.4,16.4-0.8,16.7c-0.3,0.2-2.1-0.5-3.8-1.6  c-1.8-1.1-3.4-2-3.7-2c-1.1,0-28.8-17.7-38.1-24.4c-21.2-15.2-30.5-23.1-46.8-39.5c-27.2-27.4-39.6-49.5-44-78.8  c-1.2-7.6-1.1-9.8,0.2-9.8c0.8,0,1.4,1.7,2.1,5.7c3.4,21.9,8.3,35.1,18.8,51c15.5,23.5,43.7,50.1,78,73.5  c8.4,5.8,28.3,18.2,29.1,18.2c0.2,0,1.5,0.7,2.9,1.7c1.3,1,2.5,1.5,2.6,1.3c0.2-0.2,0.4-5.8,0.5-12.5c0.2-11.9,2.1-34,3.8-42.9  c0.5-2.4,1.2-6.4,1.6-8.7c1.3-7.5,6.1-29.8,10.7-49.6c13.5-58.7,16-75.2,16-106.4c0-14.8-0.3-21-1.4-27.7c-3.3-19-8.4-34.5-18-53.7  c-11-21.8-22.6-37.2-43.3-56.8c-7-6.6-15.8-14.4-19.8-17.5c-13.7-10.6-33.3-23.3-50.8-32.7c-5.6-3.1-6.3-3.7-5.6-4.8  C418.6,268,418.5,268,424.1,271z M169,390.9c0,0.8-1.7,1.4-5.7,2.1c-21.9,3.4-34.4,8-50.6,18.6c-24.7,16-53.7,47.4-77.2,83  C28,506,17.2,524.1,17.6,524.4c0.2,0.2,5.8,0.4,12.5,0.5C42,525,63.9,527,73,528.7c16.4,3.1,39.4,7.9,53.9,11.3  c61.4,14.2,79.5,17,110.8,17c14.8,0,21-0.3,27.7-1.4c19-3.3,34.5-8.4,53.7-18c21.8-10.9,36.8-22.3,56.7-43.2  c12.9-13.6,18.7-20.6,28.7-35c6.3-9,16.1-25.2,21.8-35.7c3.2-5.9,3.8-6.5,4.9-5.4c0.9,0.9-1,4.9-8,16.9c-16.1,27.7-28,43.4-49,64.9  c-19.4,19.8-32.3,29.5-54.3,40.4c-29.3,14.6-50,19.5-82.1,19.4c-29.5-0.1-46.4-2.4-88.9-11.9c-39.6-8.9-45.2-10.2-55.2-12.1  c-22-4.4-29.2-5.6-40.5-6.6c-3.3-0.2-6.2-0.6-6.5-0.9c-0.3-0.2-7.9-0.3-16.9-0.3c-9-0.1-16.4-0.3-16.7-0.7  c-0.8-1.3,16.5-29.7,27.9-45.6c15.2-21.1,23-30.5,39.5-46.8c26.8-26.8,48-38.7,76.7-43.7C165.4,389.6,169,389.6,169,390.9z" fill="#ffffff" style=""></path><desc>Created with Snap</desc><defs></defs></g><g><g transform="matrix(1.024,0,0,-1.024,0,0)"><path d="M491 -121Q468 -121 437 -95Q407 -68 374 -25Q341 18 309 69Q277 120 248 172Q220 224 201 265Q174 171 149 80Q124 -11 101 -88Q74 -88 50 -73Q26 -57 26 -32Q26 -21 31 -6Q36 9 40 23Q68 107 91 176Q114 245 135 305Q157 365 179 424Q202 483 228 546Q255 609 288 684Q248 677 218 663Q188 650 169 639Q150 629 143 629Q139 629 129 635Q120 641 113 649Q106 658 106 664Q134 675 170 688Q207 701 251 710Q295 720 342 720Q386 720 433 709Q480 699 520 676Q560 653 584 616Q608 580 608 529Q608 481 586 446Q565 412 529 388Q494 364 452 349Q410 334 367 326Q324 318 288 315Q253 312 231 311Q263 260 293 211Q323 162 357 114Q392 66 438 17Q485 -31 549 -81Q544 -98 525 -110Q507 -121 491 -121ZM222 337Q277 340 332 354Q387 369 432 394Q477 420 504 458Q531 497 531 549Q531 602 505 632Q479 663 438 676Q397 689 352 690Q318 622 285 529Q252 437 222 337ZM716 -44Q653 -44 620 -10Q587 24 587 75Q587 120 609 169Q632 219 670 262Q708 306 753 333Q799 361 844 361Q869 361 891 348Q914 335 914 296Q914 258 891 224Q869 191 832 165Q796 139 751 122Q707 106 663 102Q662 96 661 90Q660 84 660 74Q660 66 662 52Q665 39 672 25Q680 12 696 3Q712 -6 738 -6Q780 -6 822 18Q865 42 902 81Q939 121 964 169L981 155Q954 95 912 50Q870 6 819 -19Q769 -44 716 -44ZM672 133Q698 138 731 153Q764 169 794 192Q824 216 843 244Q863 272 863 301Q863 312 859 317Q855 322 845 322Q821 322 795 304Q770 287 745 259Q721 232 702 198Q683 165 672 133ZM1026 -30Q980 -30 961 1Q943 32 943 75Q943 124 961 190Q979 256 1008 328Q1038 401 1073 470Q1109 540 1144 596Q1180 653 1210 686Q1241 720 1259 720Q1271 720 1279 707Q1288 694 1293 675Q1298 657 1298 642Q1298 615 1284 571Q1271 528 1246 475Q1222 423 1188 368Q1155 314 1115 264Q1075 215 1029 179Q1025 154 1021 129Q1018 104 1018 83Q1018 46 1029 28Q1041 11 1061 11Q1087 11 1113 35Q1140 59 1164 95Q1188 132 1206 171L1227 159Q1185 72 1134 21Q1083 -30 1026 -30ZM1044 232Q1079 268 1110 312Q1141 357 1167 403Q1194 449 1214 492Q1234 536 1245 570Q1256 605 1257 625Q1257 629 1256 630Q1255 632 1255 632Q1247 632 1228 608Q1210 585 1185 545Q1161 505 1135 453Q1109 401 1085 344Q1061 287 1044 232ZM1260 -29Q1218 -29 1197 -4Q1176 22 1176 59Q1176 82 1184 117Q1192 152 1206 190Q1221 229 1240 263Q1259 297 1280 318Q1302 340 1323 340Q1335 340 1343 333Q1351 326 1351 313Q1351 300 1335 273Q1320 247 1299 213Q1278 179 1262 142Q1247 105 1247 71Q1247 38 1259 27Q1271 16 1294 16Q1328 16 1367 50Q1407 84 1450 169L1463 155Q1430 67 1375 19Q1321 -29 1260 -29ZM1379 425Q1361 425 1346 433Q1332 442 1332 461Q1332 485 1357 501Q1383 518 1410 518Q1427 518 1438 510Q1449 502 1449 483Q1449 462 1427 443Q1405 425 1379 425ZM1539 -44Q1476 -44 1443 -10Q1410 24 1410 75Q1410 120 1432 169Q1455 219 1493 262Q1531 306 1576 333Q1622 361 1667 361Q1692 361 1714 348Q1737 335 1737 296Q1737 258 1714 224Q1692 191 1655 165Q1619 139 1574 122Q1530 106 1486 102Q1485 96 1484 90Q1483 84 1483 74Q1483 66 1485 52Q1488 39 1495 25Q1503 12 1519 3Q1535 -6 1561 -6Q1603 -6 1645 18Q1688 42 1725 81Q1762 121 1787 169L1804 155Q1777 95 1735 50Q1693 6 1642 -19Q1592 -44 1539 -44ZM1495 133Q1521 138 1554 153Q1587 169 1617 192Q1647 216 1666 244Q1686 272 1686 301Q1686 312 1682 317Q1678 322 1668 322Q1644 322 1618 304Q1593 287 1568 259Q1544 232 1525 198Q1506 165 1495 133ZM1759 -280Q1748 -280 1733 -273Q1719 -266 1708 -246Q1697 -226 1697 -187Q1697 -143 1712 -74Q1727 -4 1752 81Q1778 166 1812 255Q1847 344 1886 427Q1926 510 1968 576Q2010 642 2051 681Q2093 720 2131 720Q2155 720 2162 705Q2170 691 2170 671Q2170 628 2146 577Q2123 526 2084 474Q2045 423 1997 377Q1949 331 1899 298Q1895 287 1890 276Q1886 266 1882 255Q1893 251 1899 241Q1906 232 1907 221Q1915 177 1923 143Q1931 109 1947 89Q1964 70 1995 70Q2030 70 2056 96Q2082 122 2110 169L2129 155Q2100 92 2060 63Q2021 35 1990 35Q1972 35 1953 42Q1935 50 1918 64Q1917 1 1903 -60Q1890 -121 1867 -171Q1845 -220 1817 -250Q1789 -280 1759 -280ZM1786 -223Q1797 -223 1810 -204Q1823 -184 1835 -153Q1848 -121 1858 -83Q1869 -45 1875 -8Q1882 30 1882 60Q1882 90 1875 113Q1868 137 1851 167Q1827 96 1808 30Q1790 -36 1779 -90Q1769 -143 1769 -178Q1769 -223 1786 -223ZM1924 358Q1986 416 2030 472Q2075 529 2098 572Q2122 616 2122 634Q2122 644 2112 644Q2088 644 2056 605Q2024 567 1990 502Q1956 437 1924 358Z" fill="#ffffff" style=""></path></g></g></g></svg>